<svg width="580" height="400" xmlns="http://www.w3.org/2000/svg">
 <!-- Created with Method Draw - http://github.com/duopixel/Method-Draw/ -->
 <g>
  <title>background</title>
  <rect fill="#fff" id="canvas_background" height="402" width="582" y="-1" x="-1"/>
  <g display="none" overflow="visible" y="0" x="0" height="100%" width="100%" id="canvasGrid">
   <rect fill="url(#gridpattern)" stroke-width="0" y="0" x="0" height="100%" width="100%"/>
  </g>
 </g>
 <g>
  <title>Layer 1</title>
  <path d="m109.752951,157.497422c0,0 0.10257,-0.558243 -0.499992,-1.499985c-1.725464,-2.696747 -3.498238,-4.437881 -3.999939,-10.499817c-0.948517,-11.460632 -0.268646,-21.695313 1.999969,-28.999535c2.258896,-7.272926 5.873611,-14.040779 11.999802,-20.499664c3.657631,-3.85627 8.403885,-7.687256 12.499794,-8.999847c5.237549,-1.678452 8.074432,-0.140678 10.999817,1.499977c4.114075,2.307312 9.241989,5.834923 14.999756,9.999832c5.282059,3.820801 10.912552,8.164436 14.499771,12.999786c4.26532,5.749374 6.532074,11.166702 9.499832,16.499725c3.703217,6.654648 5.326492,12.441818 6.499893,19.99968c1.389236,8.948029 0.999985,18.499695 0.999985,27.499542c0,7.999878 0.21524,15.077316 -1.499969,19.49968c-1.780655,4.591125 -3.113953,8.138428 -3.999939,9.999847c-1.074417,2.257294 -1.499969,2.499954 -1.999969,3.499939l-0.999969,0.499985" id="svg_9" stroke-opacity="null" stroke-width="0" stroke="#000" fill="#CE7975"/>
  <path stroke="#000" d="m448.505265,153.497486c0,0 -0.111154,-0.55824 0.541834,-1.49998c1.869862,-2.69675 3.791003,-4.43788 4.33469,-10.49982c1.0279,-11.46063 0.291133,-21.69531 -2.167345,-28.99953c-2.447944,-7.27293 -6.365165,-14.04078 -13.004048,-20.49967c-3.963732,-3.85627 -9.107201,-7.68725 -13.545892,-8.99985c-5.675863,-1.67845 -8.750169,-0.14067 -11.92037,1.49998c-4.458382,2.30731 -10.01544,5.83492 -16.255071,9.99983c-5.724109,3.8208 -11.825808,8.16444 -15.713237,12.99979c-4.622279,5.74937 -7.078731,11.1667 -10.294859,16.49973c-4.013138,6.65464 -5.772257,12.44181 -7.043858,19.99967c-1.505504,8.94803 -1.083678,18.4997 -1.083678,27.49955c0,7.99987 -0.233253,15.07731 1.625501,19.49968c1.929681,4.59112 3.374553,8.13842 4.33469,9.99984c1.164337,2.2573 1.625501,2.49996 2.167345,3.49994l1.083656,0.49999" id="svg_10" stroke-opacity="null" stroke-width="0" fill="#CE7975"/>
  <ellipse ry="170" rx="165" id="svg_3" cy="201.5" cx="277.5" stroke-opacity="null" stroke-width="0" stroke="#000" fill="#c0c0d1"/>
  <text stroke="#000" transform="matrix(8.502254486083984,0,0,10.407407760620117,-836.5013751983643,-606.7778005599976) " xml:space="preserve" text-anchor="start" font-family="Helvetica, Arial, sans-serif" font-size="24" id="svg_1" y="85.923488" x="122.668907" stroke-width="0" fill="#38a0c9">H</text>
  <text stroke="#000" transform="rotate(-0.47651687264442444 280.11129760742165,294.11859130859153) matrix(5.688515244954703,0,0,6.591914854624973,-1913.2779077501198,-665.6702362807871) " xml:space="preserve" text-anchor="start" font-family="Helvetica, Arial, sans-serif" font-size="24" id="svg_2" y="153.980936" x="377.553786" stroke-opacity="null" stroke-width="0" fill="#38a0c9">A</text>
  <text stroke="#000" transform="rotate(179.8272247314453 279.33325195312506,104.16907501220703) matrix(5.688515244954703,0,0,6.591914854624973,-1913.2779077501198,-665.6702362807871) " xml:space="preserve" text-anchor="start" font-family="Helvetica, Arial, sans-serif" font-size="24" id="svg_4" y="125.157749" x="377.377994" stroke-opacity="null" stroke-width="0" fill="#38a0c9">A</text>
 </g>
</svg>